<svg width="526" height="480" viewBox="0 0 526 480" fill="none" xmlns="http://www.w3.org/2000/svg">
<path d="M202.935 158.437H204.766L203.301 157.732L202.935 158.437ZM207.697 156.323C207.697 156.676 207.697 156.676 208.063 156.676L209.528 155.619C208.795 155.267 208.429 155.267 207.697 156.323ZM193.411 165.833L194.51 165.129C194.876 164.776 194.876 164.424 194.876 164.424H194.144L193.411 165.833C193.045 165.833 193.045 165.481 193.411 165.833ZM201.47 155.619H201.103L200.371 156.323H201.47V155.619ZM193.778 164.072L195.975 162.311C196.342 161.959 196.342 161.606 196.342 161.254H195.243L190.847 165.129L190.115 166.537L192.679 164.424L193.778 164.072Z" fill="#FF4A3F"/>
<path d="M165.94 192.601V191.896C166.081 191.12 166.38 190.378 166.82 189.713C167.26 189.048 167.832 188.474 168.504 188.022L171.8 185.909L173.632 183.795L176.196 181.33L177.661 179.921L179.126 178.865C180.435 178.141 181.463 177.029 182.056 175.695L183.522 173.934C184.958 172.579 186.191 171.038 187.184 169.355L187.917 168.298L189.016 167.594L188.283 166.537L189.748 164.776C192.679 162.663 194.876 159.845 197.807 157.732L198.906 156.676C199.295 155.818 199.93 155.085 200.737 154.562L203.667 153.154H205.133C206.211 152.748 207.115 152.003 207.697 151.04V150.336C208.778 148.299 210.426 146.592 212.458 145.405L215.389 143.644L216.121 142.94L217.586 141.531L221.249 139.77H221.982L217.953 141.179L212.825 144.701C210.627 146.462 207.697 146.814 206.231 149.631H207.33C204.766 150.336 202.202 151.393 201.103 153.858C200.005 156.323 198.173 155.971 196.708 157.028C196.386 157.108 196.101 157.291 195.901 157.547C195.702 157.803 195.599 158.117 195.609 158.437C192.679 158.084 191.58 160.198 190.115 161.606V164.424C187.724 165.514 185.695 167.221 184.254 169.355C178.394 169.707 178.394 176.751 173.266 178.16H172.899C172.835 178.267 172.801 178.389 172.801 178.512C172.801 178.636 172.835 178.757 172.899 178.865C171.8 178.865 171.068 179.569 171.434 180.626L170.702 182.387C168.138 183.795 168.504 186.261 167.039 188.374C164.108 190.135 163.01 193.657 160.812 196.123L161.911 197.884L162.643 197.179C163.633 195.583 164.734 194.053 165.94 192.601ZM327.839 116.172L330.036 116.876H330.769C332.351 117.647 334.154 117.895 335.897 117.581C338.213 117.172 340.597 117.293 342.856 117.933H347.252C348.02 117.774 348.815 117.786 349.578 117.969C350.34 118.152 351.048 118.502 351.647 118.99C351.68 119.043 351.696 119.104 351.696 119.166C351.696 119.228 351.68 119.288 351.647 119.342H350.182C350.15 119.395 350.133 119.456 350.133 119.518C350.133 119.58 350.15 119.641 350.182 119.694H352.746C354.278 119.124 355.976 119.124 357.508 119.694C358.241 119.694 357.874 120.046 358.241 120.398L360.072 121.103H359.339C358.607 119.694 357.508 119.694 356.409 119.694C351.48 117.493 346.092 116.409 340.659 116.524H337.728C333.462 115.271 328.99 114.793 324.542 115.115H325.275L327.839 116.172ZM382.049 128.851C382.514 129.311 383.113 129.625 383.767 129.751C384.421 129.876 385.099 129.808 385.712 129.556H387.91C386.041 128.08 383.731 127.216 381.317 127.09L378.753 126.386L380.584 127.443L382.049 128.851ZM369.595 124.273C369.595 124.625 369.962 124.977 370.328 125.329H371.061L372.892 124.273C371 123.143 368.875 122.422 366.665 122.159L369.229 123.568L369.595 124.273ZM396.701 133.782L399.631 135.543C398.898 134.487 398.166 133.782 396.701 133.782Z" fill="#FF4A3F"/>
<path d="M493.034 372.577L495.232 366.942L497.43 361.659C498.162 359.898 499.627 355.319 500.36 352.502C500.528 351.611 500.903 350.768 501.459 350.036H501.825V346.162C503.657 345.81 503.29 344.049 503.657 342.992L506.587 326.439C508.463 319.271 508.463 311.769 506.587 304.602C506.75 303.59 506.67 302.556 506.352 301.579C506.035 300.603 505.488 299.709 504.755 298.967V283.822C503.656 280.652 505.854 277.13 503.29 274.312L500.36 263.042C500.422 262.811 500.422 262.568 500.36 262.337L499.627 260.224C499.527 260.002 499.474 259.762 499.474 259.52C499.474 259.277 499.527 259.037 499.627 258.815H499.994C501.093 258.815 501.092 257.054 501.092 255.645C500.873 254.274 500.376 252.957 499.627 251.771L498.528 250.362C498 249.644 497.742 248.775 497.796 247.897C497.921 245.527 497.675 243.152 497.063 240.853V238.739C496.331 236.274 495.598 233.456 494.866 230.991L494.133 229.23C493.333 228.068 492.831 226.74 492.668 225.356C492.472 224.363 492.101 223.41 491.569 222.538L489.371 219.016C489.074 218.761 488.726 218.567 488.348 218.446C487.97 218.325 487.57 218.279 487.174 218.312H486.807V217.255H486.075V214.437H485.708V213.733C485.724 213.616 485.724 213.498 485.708 213.381V212.676C486.075 211.972 486.075 211.62 485.342 210.915C484.711 210.313 484.212 209.594 483.877 208.802L483.144 206.689C482.659 205.101 481.779 203.651 480.58 202.462C479.807 201.764 479.185 200.927 478.749 199.997L476.185 194.362C475.622 193.097 474.883 191.912 473.987 190.84L471.79 188.022C471.122 187.179 470.625 186.223 470.324 185.204L469.592 184.148C469.4 183.898 469.268 183.611 469.204 183.306C469.141 183.002 469.148 182.688 469.226 182.387C469.226 182.113 469.159 181.844 469.032 181.599C468.905 181.355 468.72 181.142 468.493 180.978L467.028 179.921V180.626C467.394 181.33 467.028 181.682 466.662 181.682H465.929L467.028 185.204L468.127 186.965L470.691 190.135H470.324L469.592 189.431L468.859 188.726C468.695 187.696 468.169 186.75 467.37 186.046C466.571 185.341 465.546 184.92 464.464 184.852V182.387C463.365 178.16 458.603 177.808 456.405 174.99C456.059 174.183 455.509 173.471 454.806 172.917C454.103 172.364 453.268 171.987 452.376 171.82L449.446 168.651C446.402 164.46 442.547 160.873 438.091 158.084L435.161 155.971L433.696 154.915C431.132 152.449 430.033 148.575 425.637 148.575L422.707 146.814L419.41 144.348C418.832 143.092 417.917 142.005 416.759 141.201C415.6 140.396 414.24 139.902 412.817 139.77C410.435 137.686 407.533 136.23 404.393 135.543L405.125 136.248L406.957 137.657L411.718 140.122C414.572 141.604 417.167 143.505 419.41 145.757C421.049 147.285 422.897 148.588 424.905 149.632L427.103 151.393C427.469 151.745 427.835 152.097 427.469 152.449H427.103L423.806 151.393C421.197 150.918 418.709 149.961 416.48 148.575L412.085 146.462L407.323 143.996H406.59C405.492 143.644 405.125 142.587 403.66 142.235L400.73 141.531L391.573 139.77C390.298 139.193 389.172 138.351 388.276 137.304C387.095 137.26 385.952 136.894 384.979 136.248L381.317 134.839C377.825 134.166 374.395 133.224 371.061 132.021L368.863 131.317L365.2 130.26H363.369L362.636 129.204V128.851H356.775L354.578 127.09L353.113 127.795L351.647 128.499H350.915L347.618 126.738C345.42 128.851 343.589 126.034 341.758 126.386L338.095 125.329C337.427 125.7 336.669 125.896 335.897 125.896C335.125 125.896 334.367 125.7 333.699 125.329H329.304C328.786 125.245 328.317 124.986 327.982 124.599C327.646 124.211 327.465 123.721 327.472 123.216L328.571 122.512H330.769C330.973 122.832 331.099 123.194 331.135 123.568C331.135 124.273 331.868 124.273 332.967 124.273H333.699L332.234 122.16C331.728 121.767 331.131 121.497 330.493 121.374C329.855 121.252 329.196 121.279 328.571 121.455L324.908 122.512H324.542C325.641 123.216 325.275 123.568 325.275 124.273H319.414L317.949 123.568L315.019 122.16H314.652L312.088 121.455H303.664L305.129 120.751L308.059 120.046H309.158L315.385 118.99L319.414 118.285L321.612 117.581H317.583C313.475 116.765 309.237 116.765 305.129 117.581H300.367L287.913 117.229C282.785 117.581 277.657 117.229 273.628 121.455C264.471 120.046 256.413 123.921 248.354 127.795L240.296 130.965C235.199 131.659 230.458 133.877 226.743 137.304H227.842L229.674 136.248L232.604 134.487L237.366 132.373L241.029 131.669C243.247 130.189 245.731 129.114 248.354 128.499L251.651 127.443H252.384C252.75 128.147 254.215 127.443 254.948 127.443H255.68C256.046 127.443 256.046 127.795 255.68 127.795L253.482 129.204L257.145 128.147L260.076 127.443L255.314 129.908L250.552 131.317C250.082 131.454 249.645 131.68 249.267 131.983C248.89 132.285 248.579 132.658 248.354 133.078L247.256 134.839H248.354L249.82 134.134C250.196 133.59 250.681 133.122 251.247 132.759C251.813 132.397 252.448 132.146 253.116 132.021L258.61 130.26H260.442C260.539 130.214 260.651 130.206 260.755 130.239C260.858 130.272 260.943 130.343 260.991 130.436C261.04 130.53 261.048 130.638 261.014 130.737C260.979 130.836 260.905 130.918 260.808 130.965C260.076 131.669 258.61 132.021 257.878 132.726H258.61L246.889 135.896L232.97 141.531C230.579 143.601 227.68 145.055 224.546 145.757C222.69 147.349 220.589 148.656 218.319 149.632L215.389 150.336C214.981 151.238 214.319 152.013 213.477 152.573C212.636 153.133 211.649 153.456 210.627 153.506L209.528 155.267C208.38 156.856 206.879 158.179 205.133 159.141H204.766V158.789L204.034 159.493L203.301 160.198L199.638 160.902H197.807L196.342 162.663C195.975 163.015 195.975 163.368 196.342 163.368H196.708C194.51 165.481 193.045 168.298 190.115 169.355L185.353 174.638C183.155 178.865 178.76 180.273 175.83 183.795C172.899 187.317 170.702 197.531 161.544 198.94L160.812 197.884L160.079 199.645C159.757 200.656 159.262 201.608 158.614 202.462C156.967 204.824 155.498 207.295 154.219 209.859C153.9 210.391 153.771 211.01 153.852 211.62C153.908 212.608 153.653 213.59 153.12 214.437L151.288 218.312H152.021C153.12 218.312 153.12 219.368 153.486 220.425L156.416 216.55C156.96 215.589 157.709 214.748 158.614 214.085C160.043 213.402 161.2 212.289 161.911 210.915L163.01 209.859L164.475 208.45L166.672 204.576H167.405C167.771 204.928 167.771 204.928 168.138 204.576L168.87 203.167H170.702V205.984L172.533 204.223C172.694 203.956 172.778 203.652 172.778 203.343C172.778 203.034 172.694 202.73 172.533 202.462C172.516 202.271 172.54 202.079 172.603 201.898C172.666 201.716 172.767 201.549 172.899 201.406C173.382 200.893 173.755 200.295 173.998 199.645C174.185 198.928 174.548 198.266 175.059 197.714C175.569 197.162 176.21 196.737 176.928 196.475L178.027 195.77L179.126 194.714C180.417 193.817 181.429 192.599 182.056 191.192L181.324 190.135C181.324 189.783 181.69 189.078 182.056 188.726H183.888L186.086 185.909L188.283 184.852H189.016C181.497 192.686 174.753 201.175 168.87 210.211C160.668 222.506 154.144 235.763 149.457 249.658H147.625L145.794 248.249C145.061 247.545 145.428 245.784 144.329 245.079H144.695C145.794 243.318 144.329 240.853 145.794 239.092C147.259 237.331 146.16 234.161 142.497 234.865C138.835 235.57 137.003 236.626 137.736 240.148C138.468 243.67 134.073 246.488 133.707 250.362C133.34 254.236 131.875 252.123 132.608 253.532V267.268C132.974 270.086 130.776 273.608 135.538 274.664L140.3 277.834C140.666 279.595 138.468 283.469 143.596 282.413C142.919 288.261 142.553 294.139 142.497 300.023C142.497 303.897 142.864 307.772 142.864 311.646V310.237C142.497 308.828 142.497 307.419 142.131 305.658L141.032 306.715V306.011H139.201C139.201 307.772 138.835 308.828 137.736 309.18C137.44 309.721 137.312 310.333 137.369 310.941C137.369 311.294 137.736 311.998 138.102 311.646C138.468 311.294 139.567 312.35 140.666 313.055C141.765 313.759 139.933 314.111 139.201 313.759C138.468 313.407 138.468 314.111 138.468 314.816V315.872L140.3 321.155C140.3 322.212 139.933 323.269 139.933 324.325C139.933 325.308 140.185 326.276 140.666 327.143H139.567V326.086L137.003 325.382V323.269C137.106 322.686 137.106 322.091 137.003 321.508C136.5 319.419 136.133 317.301 135.904 315.168C135.208 311.095 134.963 306.963 135.172 302.841C135.115 302.232 135.242 301.621 135.538 301.08V301.784C135.714 302.36 135.836 302.949 135.904 303.545C135.896 304.038 136.023 304.523 136.271 304.954C136.637 305.658 137.003 306.363 137.736 306.363C138.468 306.363 138.102 306.011 138.102 305.658C138.055 305.059 137.932 304.468 137.736 303.897C137.118 302.437 136.747 300.891 136.637 299.319C136.497 298.42 136.119 297.571 135.538 296.853C134.976 295.889 134.721 294.786 134.805 293.683V290.866C134.805 289.809 135.172 288.753 135.172 287.696C135.218 287.45 135.21 287.196 135.147 286.954C135.083 286.711 134.967 286.483 134.805 286.287H134.439C131.509 287.696 131.875 286.992 130.776 291.922V298.262C130.776 300.728 130.41 303.193 130.776 305.658C130.719 308.376 130.964 311.092 131.509 313.759C131.594 314.343 131.594 314.936 131.509 315.52C131.469 316.588 131.592 317.656 131.875 318.69C132.173 320.199 132.296 321.734 132.241 323.269C132.021 325.292 132.272 327.337 132.974 329.256C133.056 329.722 133.056 330.199 132.974 330.665C132.906 331.618 133.03 332.575 133.34 333.483C133.688 334.515 133.933 335.576 134.073 336.652C134.466 339.278 135.078 341.87 135.904 344.401C136.273 345.548 136.518 346.728 136.637 347.923C136.805 348.814 137.18 349.657 137.736 350.388C138.671 351.646 139.297 353.091 139.567 354.615C139.858 355.81 140.225 356.986 140.666 358.137L142.131 363.068C142.584 364.925 143.325 366.706 144.329 368.351C145.642 370.681 146.627 373.168 147.259 375.747L147.992 377.508C148.922 378.502 149.555 379.719 149.823 381.03C150.095 382.06 150.595 383.021 151.288 383.848C151.695 384.36 151.949 384.969 152.021 385.609C152.387 386.666 152.753 387.018 153.486 386.666H153.852V389.835L155.684 393.358L157.515 396.88L161.544 401.106L163.01 402.515C164.108 403.571 165.574 404.276 166.306 406.037L167.771 407.094C168.075 407.294 168.331 407.555 168.52 407.859C168.71 408.163 168.829 408.502 168.87 408.855L169.603 411.32C170.149 412.486 170.892 413.557 171.8 414.49L173.266 415.194H174.364C174.47 415.23 174.566 415.288 174.644 415.365C174.722 415.441 174.782 415.534 174.817 415.636C174.852 415.738 174.863 415.847 174.848 415.953C174.833 416.06 174.793 416.162 174.731 416.251C174.67 416.836 174.67 417.426 174.731 418.012C174.978 418.752 175.499 419.378 176.196 419.773H176.928C178.394 419.421 179.859 420.477 181.324 422.238H181.69C181.69 421.886 182.056 421.886 181.69 421.534V420.83C181.69 420.477 182.056 420.125 182.423 420.477C182.775 420.713 183.061 421.03 183.253 421.399C183.445 421.768 183.537 422.178 183.522 422.591V423.295C183.791 424.766 184.284 426.19 184.987 427.521C186.818 428.578 186.818 428.578 186.818 427.874C186.818 427.169 186.818 427.169 187.551 427.169H189.016L189.748 428.226L192.679 429.987C195.243 432.805 199.272 432.452 202.202 434.213L208.429 440.201H209.162C209.696 441.47 210.49 442.623 211.497 443.591C212.504 444.559 213.703 445.322 215.022 445.836C215.42 446.438 215.958 446.943 216.593 447.31C217.229 447.677 217.946 447.896 218.685 447.949C218.685 449.71 220.883 450.063 222.714 450.415C223.466 451.23 224.516 451.735 225.645 451.824H226.377C227.076 452.523 227.941 453.049 228.898 453.356C229.856 453.662 230.876 453.741 231.871 453.585L235.168 456.402L243.959 459.572V460.277C245.79 464.151 250.186 462.742 253.116 463.799L257.145 465.207H258.61C263.006 466.264 267.401 468.377 272.163 466.968C272.021 467.428 272.021 467.918 272.163 468.377C276.192 470.843 280.954 468.377 285.349 469.786C287.342 470.5 289.511 470.623 291.576 470.138H291.943L294.873 470.843H295.972L299.268 471.547H300.367C300.646 471.393 300.961 471.311 301.283 471.311C301.604 471.311 301.92 471.393 302.199 471.547C303.978 472.189 305.818 472.661 307.693 472.956H309.891C310.28 472.74 310.723 472.626 311.173 472.626C311.623 472.626 312.065 472.74 312.455 472.956H326.74C328.7 473.142 330.679 473.023 332.6 472.604H336.263L338.095 471.899H350.182L352.38 471.195L354.211 470.138H362.27V472.251H357.508L353.113 472.956C351.647 473.308 350.549 472.956 349.45 473.308C348.295 473.792 347.046 474.033 345.787 474.013L341.025 475.069H339.56C337.726 474.751 335.839 474.872 334.066 475.421H327.472C326.954 475.645 326.392 475.76 325.824 475.76C325.256 475.76 324.694 475.645 324.176 475.421H307.693C306.982 475.291 306.25 475.319 305.551 475.502C304.853 475.685 304.208 476.019 303.664 476.478H302.565L301.466 475.774V474.717H297.071C295.554 474.117 293.945 473.76 292.309 473.66H283.152L280.588 472.956L278.756 472.251L271.064 470.843H269.233L267.401 470.138L259.709 467.673L254.581 466.264H246.523C246.157 466.264 246.157 466.616 246.157 466.968H246.889C251.651 468.729 256.413 470.138 261.174 472.251H262.273L265.57 472.956L270.698 474.365H275.46L277.657 475.069L280.221 476.126L286.448 477.182L290.477 477.887L294.507 478.591H297.437L300.367 479.296H311.722L315.385 480H323.81L327.472 479.296H335.531C336.996 479.296 337.728 478.943 338.095 478.239H341.758C342.297 478.282 342.839 478.209 343.346 478.027C343.853 477.844 344.311 477.556 344.688 477.182C344.322 477.535 344.688 477.535 345.054 477.887H346.519V477.182C346.519 476.83 346.519 476.83 347.252 476.478C347.984 476.126 349.45 476.126 349.816 476.83H351.281L352.38 476.126C353.113 476.126 353.113 476.126 353.113 476.478H355.677L357.508 475.774L360.438 474.365C360.805 475.421 361.903 475.774 365.2 475.069L369.962 473.66H374.357C377.654 473.308 381.683 473.66 384.247 471.195H384.979L386.445 470.138L390.474 469.082C393.07 468.568 395.551 467.614 397.8 466.264L399.265 465.56H399.631L402.928 463.446L404.393 462.742L406.224 462.038H407.689C409.154 461.685 409.154 461.685 409.521 460.629C409.887 459.572 409.521 460.277 408.788 460.277H408.422L409.887 458.515H410.62C411.718 458.163 412.451 457.811 413.184 458.163H413.916C414.702 457.951 415.418 457.548 415.995 456.993C416.573 456.438 416.992 455.749 417.213 454.993C418.312 453.585 421.242 454.289 421.974 452.176L437.725 441.257C441.754 440.905 442.853 437.383 445.783 435.27C448.713 433.157 454.208 431.396 456.772 427.521L460.068 426.113H460.435C461.357 426.329 462.33 426.194 463.15 425.734C463.97 425.274 464.572 424.526 464.83 423.647V425.056C467.76 423.647 471.423 426.113 474.354 423.295C477.284 420.477 474.354 413.785 478.016 409.911L480.58 408.15C483.349 403.589 485.212 398.573 486.075 393.358L486.807 392.653C486.807 391.597 486.807 390.188 488.272 389.483C488.922 388.995 489.358 388.29 489.494 387.507C489.629 386.725 489.455 385.922 489.005 385.257H488.272C488.369 385.096 488.42 384.914 488.42 384.729C488.42 384.543 488.369 384.361 488.272 384.2C490.836 384.2 491.203 381.735 492.668 380.678V375.747C492.619 375.515 492.619 375.275 492.668 375.043C492.869 374.234 492.992 373.408 493.034 372.577Z" fill="#FF4A3F"/>
<path d="M227.11 137.304L226.011 138.009L224.546 139.065L226.377 138.361L227.11 137.304ZM249.453 130.26H249.82L250.918 129.556H249.453V130.26ZM239.93 133.782L239.564 134.134H239.93V133.782ZM164.108 196.827L162.643 198.236H163.376C163.63 198.098 163.835 197.89 163.966 197.639C164.096 197.388 164.146 197.105 164.108 196.827ZM175.097 184.5C175.579 183.857 175.95 183.143 176.196 182.387C175.448 182.825 174.82 183.429 174.364 184.148C173.998 184.5 173.998 184.852 174.364 184.852L175.097 184.5ZM170.702 189.783V189.079C169.969 189.079 168.87 190.135 167.771 190.135V190.84C168.87 191.896 169.236 191.544 170.702 189.783ZM401.096 136.952H401.462L399.631 135.896L401.096 136.952ZM391.939 132.021C393.77 131.669 394.869 133.43 396.334 133.782H396.701L395.602 133.078L391.939 131.317L387.91 129.556L389.009 130.26L391.939 132.021ZM366.665 122.512H366.299L361.903 121.807H363.735L366.665 122.512ZM373.991 124.977L378.753 126.386C377.284 125.604 375.663 125.124 373.991 124.977ZM341.025 124.977C341.432 124.466 341.685 123.857 341.758 123.216H339.926L338.827 124.273L340.292 125.329L341.025 124.977ZM358.607 126.034C358.595 126.151 358.595 126.269 358.607 126.386V126.034ZM522.703 310.237H521.605V308.828H522.703C523.07 308.828 523.436 307.772 523.07 307.419C522.703 307.067 522.703 304.954 521.971 304.602C521.746 304.526 521.553 304.382 521.421 304.191C521.289 304.001 521.225 303.774 521.238 303.545L521.971 302.136C522.033 301.905 522.033 301.663 521.971 301.432H521.238L520.506 300.375C520.139 301.432 519.773 302.489 519.041 302.841C518.991 303.073 518.991 303.313 519.041 303.545C519.041 303.897 519.041 304.25 518.674 304.25H518.308C518.239 304.617 518.116 304.973 517.942 305.306C517.221 306.249 516.721 307.33 516.477 308.476C516.399 308.721 516.392 308.981 516.456 309.229C516.521 309.478 516.654 309.704 516.843 309.885H517.209C516.854 310.782 516.728 311.749 516.843 312.703V314.111C516.808 314.712 516.685 315.305 516.477 315.872H516.11L514.645 318.338V320.451C514.823 321.831 514.429 323.223 513.546 324.325H512.814L512.081 323.621C511.796 323.211 511.615 322.743 511.551 322.254C511.488 321.765 511.544 321.268 511.715 320.803C512.109 318.832 512.233 316.818 512.081 314.816C512.081 314.464 511.715 314.111 511.715 314.111C511.477 314.416 511.349 314.787 511.349 315.168V317.281C511.349 317.986 510.982 319.394 510.25 319.747C509.517 320.099 509.883 320.451 509.883 320.803L509.151 322.916L510.25 324.678C509.517 325.382 508.785 325.03 508.418 324.325V327.847H509.517V329.256C508.86 330.827 508.488 332.495 508.418 334.187C508.389 334.656 508.389 335.127 508.418 335.596C508.438 337.151 508.191 338.698 507.686 340.175C507.575 340.875 507.575 341.587 507.686 342.288L506.587 344.753C506.324 345.614 505.955 346.442 505.488 347.219L504.389 349.332L501.092 358.841C502.191 362.011 499.627 364.125 498.162 366.238C498.368 367.714 498.21 369.217 497.701 370.624C497.192 372.031 496.346 373.303 495.232 374.338V375.747C495.232 376.099 495.598 376.452 496.331 376.099L497.796 375.043L498.528 373.634H499.261C499.627 373.986 499.994 373.986 500.726 373.282H501.459C501.753 373.546 501.948 373.897 502.015 374.279C502.081 374.661 502.014 375.053 501.825 375.395C501.567 376.313 501.444 377.262 501.459 378.213C501.459 378.565 501.459 378.917 501.825 378.917H502.558C502.924 379.269 503.29 378.917 503.657 377.861L504.389 376.099H505.488C506.953 375.747 506.953 375.747 507.686 373.986L509.517 370.816L510.616 368.703L512.081 365.181C512.028 363.922 512.414 362.682 513.18 361.659C513.431 361.37 513.598 361.022 513.662 360.65C513.727 360.279 513.687 359.898 513.546 359.546C513.546 358.841 513.546 358.489 514.279 357.433L515.378 356.024L517.209 352.502C517.345 351.425 517.59 350.363 517.942 349.332C518.661 347.904 519.036 346.339 519.041 344.753C519.268 343.657 519.637 342.592 520.139 341.583V339.822C519.773 339.118 519.773 339.118 520.139 337.709C520.506 336.3 520.506 337.005 520.872 337.005C521.005 337.148 521.105 337.315 521.168 337.497C521.231 337.678 521.255 337.871 521.238 338.061L521.971 336.3C522.435 335.302 522.684 334.224 522.703 333.13V332.074C522.703 331.722 522.703 331.017 522.337 331.017V332.426C521.605 332.426 521.238 333.13 520.506 333.483C520.689 332.552 520.812 331.611 520.872 330.665L522.337 329.961C522.623 329.688 522.839 329.355 522.966 328.988C523.093 328.621 523.129 328.23 523.07 327.847C523.03 327.496 523.03 327.142 523.07 326.791C523.566 325.191 523.813 323.529 523.802 321.86V321.155L524.901 317.633H525.267C525.425 317.508 525.542 317.342 525.607 317.155C525.672 316.969 525.681 316.768 525.634 316.577H525.267C525.147 316.085 525.151 315.573 525.278 315.083C525.406 314.592 525.653 314.139 526 313.759C525.774 312.966 525.358 312.234 524.785 311.623C524.213 311.011 523.5 310.537 522.703 310.237ZM163.742 213.028C163.826 212.801 163.826 212.552 163.742 212.324L163.01 211.62L162.277 212.324L161.178 214.437C161.178 215.494 160.079 216.551 160.079 217.607V218.312H160.446L163.742 213.028ZM516.477 300.375H516.843C517.621 299.102 517.882 297.596 517.575 296.149C517.51 295.819 517.544 295.477 517.674 295.165C517.804 294.853 518.024 294.584 518.308 294.388H518.674V293.683L517.942 292.979H517.575C517.209 293.331 516.843 294.036 516.477 294.036C516.11 294.036 516.11 294.388 516.11 295.092V296.149C515.821 297.563 515.948 299.027 516.477 300.375ZM178.76 421.886C178.394 421.886 178.76 422.591 178.76 422.943L181.69 425.76H182.056C181.324 424.704 180.958 423.647 181.324 423.295C180.653 423.245 180.014 423 179.492 422.591L178.76 421.886ZM519.773 297.206H520.139C520.25 296.505 520.25 295.793 520.139 295.092C519.041 295.444 519.041 295.444 519.041 297.206C519.041 298.967 519.407 297.558 519.773 297.206Z" fill="#FF4A3F"/>
<path d="M521.238 322.916C521.43 322.667 521.562 322.38 521.626 322.075C521.689 321.771 521.682 321.457 521.605 321.155C521.605 320.803 521.238 320.451 521.238 320.803H520.506V321.508C520.506 322.916 520.872 323.269 521.238 322.916ZM521.605 294.036H521.238V296.149C521.586 295.498 521.714 294.76 521.605 294.036ZM193.045 430.691H192.312V431.396L193.045 432.1H193.778V431.396L193.045 430.691ZM510.25 313.407C510.25 313.055 510.25 313.055 509.883 313.055L510.25 313.407ZM166.672 409.207L168.504 410.968L167.039 408.855L166.672 409.207Z" fill="#FF4A3F"/>
<path d="M470.691 187.317L469.958 186.261H469.592L470.691 187.317ZM151.655 218.664C151.867 218.483 151.998 218.231 152.021 217.959V218.664H151.655ZM190.481 430.339H190.115C190.481 430.691 190.847 430.339 190.481 429.987V430.339ZM191.214 432.804H191.58L191.214 432.452V432.804Z" fill="#FF4A3F"/>
<path d="M311.659 394.132C296.864 394.526 283.996 392.369 273.056 387.659C262.31 382.744 253.911 375.966 247.859 367.324C242.007 358.677 238.919 348.756 238.596 337.56C238.475 333.362 239.086 330.245 240.427 328.208C241.769 326.172 244.339 325.103 248.138 325.002C248.938 324.98 250.549 325.337 252.971 326.073C255.387 326.609 257.221 327.76 258.473 329.527C260.862 336.066 263.855 342.689 267.45 349.395C271.245 356.096 276.307 361.663 282.638 366.096C289.168 370.523 297.532 372.601 307.728 372.329C317.524 372.067 326.29 370.733 334.023 368.326C341.751 365.719 347.742 361.858 351.997 356.742C356.445 351.422 358.548 344.563 358.306 336.167C358.121 329.77 356.066 324.422 352.14 320.126C348.409 315.624 344.207 312.134 339.533 309.658C326.536 303.003 315.07 297.406 305.135 292.87C295.2 288.333 286.77 283.957 279.845 279.74C273.115 275.318 267.861 270.056 264.084 263.955C260.5 257.648 258.564 249.497 258.276 239.501C257.837 224.307 263.498 212.452 275.257 203.935C287.216 195.413 302.892 190.894 322.285 190.376C326.884 190.253 332.299 190.709 338.531 191.743C344.958 192.572 351.202 194.006 357.263 196.045C363.524 198.079 368.706 200.842 372.809 204.333C376.911 207.825 379.037 212.17 379.187 217.368C379.268 220.167 378.241 222.695 376.105 224.953C373.969 227.211 371.402 228.379 368.403 228.459C364.004 228.577 360.283 227.876 357.238 226.357C354.387 224.632 351.23 222.716 347.768 220.607C343.894 218.11 339.426 215.828 334.365 213.762C329.503 211.691 323.273 210.757 315.676 210.96C309.878 211.114 304.312 212.363 298.977 214.706C293.637 216.85 289.222 219.868 285.733 223.763C282.444 227.652 280.872 232.096 281.016 237.093C281.2 243.491 283.158 248.941 286.89 253.443C290.621 257.945 295.035 261.828 300.131 265.093C302.571 266.429 305.213 267.859 308.058 269.384C310.898 270.708 313.84 272.13 316.885 273.65C319.725 274.974 322.664 276.296 325.703 277.616C328.942 278.93 332.085 280.347 335.13 281.866C343.642 285.64 351.366 289.836 358.302 294.452C365.438 299.064 371.201 304.612 375.59 311.097C379.979 317.582 382.314 325.723 382.597 335.519C382.943 347.514 379.742 357.903 372.992 366.686C366.237 375.269 357.425 381.907 346.556 386.598C335.687 391.29 324.054 393.801 311.659 394.132Z" fill="white"/>
<path d="M273.056 387.659L270.362 393.569L270.429 393.599L270.496 393.628L273.056 387.659ZM247.859 367.324L242.478 370.958L242.507 371.002L242.537 371.044L247.859 367.324ZM240.427 328.208L234.997 324.624L234.997 324.624L240.427 328.208ZM252.971 326.073L251.094 332.292L251.333 332.364L251.577 332.418L252.971 326.073ZM258.473 329.527L264.578 327.308L264.279 326.49L263.775 325.779L258.473 329.527ZM267.45 349.395L261.722 352.456L261.758 352.522L261.795 352.588L267.45 349.395ZM282.638 366.096L278.917 371.417L278.957 371.445L278.998 371.473L282.638 366.096ZM334.023 368.326L335.968 374.532L336.041 374.509L336.113 374.485L334.023 368.326ZM351.997 356.742L347.006 352.567L347 352.574L346.995 352.58L351.997 356.742ZM352.14 320.126L347.139 324.267L347.239 324.388L347.345 324.504L352.14 320.126ZM339.533 309.658L342.567 303.917L342.527 303.895L342.486 303.875L339.533 309.658ZM305.135 292.87L307.824 286.959L307.824 286.959L305.135 292.87ZM279.845 279.74L276.284 285.169L276.377 285.231L276.473 285.289L279.845 279.74ZM264.084 263.955L258.433 267.156L258.494 267.263L258.559 267.367L264.084 263.955ZM275.257 203.935L271.477 198.64L271.456 198.654L271.436 198.669L275.257 203.935ZM338.531 191.743L337.481 198.155L337.597 198.174L337.713 198.189L338.531 191.743ZM357.263 196.045L355.202 202.205L355.235 202.216L355.267 202.226L357.263 196.045ZM372.809 204.333L368.601 209.279L368.601 209.279L372.809 204.333ZM376.105 224.953L371.378 220.481L371.378 220.481L376.105 224.953ZM357.238 226.357L353.882 231.916L354.108 232.053L354.345 232.171L357.238 226.357ZM347.768 220.607L344.253 226.067L344.324 226.113L344.395 226.156L347.768 220.607ZM334.365 213.762L331.828 219.741L331.874 219.76L331.92 219.779L334.365 213.762ZM298.977 214.706L301.41 220.739L301.507 220.7L301.603 220.658L298.977 214.706ZM285.733 223.763L280.887 219.42L280.825 219.489L280.766 219.56L285.733 223.763ZM286.89 253.443L291.891 249.302L291.891 249.302L286.89 253.443ZM300.131 265.093L296.633 270.564L296.822 270.685L297.019 270.793L300.131 265.093ZM308.058 269.384L304.997 275.111L305.157 275.196L305.32 275.272L308.058 269.384ZM316.885 273.65L313.993 279.464L314.069 279.502L314.147 279.539L316.885 273.65ZM325.703 277.616L323.125 283.577L323.198 283.608L323.271 283.638L325.703 277.616ZM335.13 281.866L332.237 287.68L332.37 287.747L332.505 287.807L335.13 281.866ZM358.302 294.452L354.708 299.86L354.745 299.885L354.782 299.909L358.302 294.452ZM375.59 311.097L370.209 314.732L370.209 314.732L375.59 311.097ZM372.992 366.686L378.104 370.712L378.127 370.683L378.15 370.653L372.992 366.686ZM346.556 386.598L343.968 380.63L343.968 380.63L346.556 386.598ZM311.471 387.634C297.396 388.01 285.505 385.947 275.616 381.69L270.496 393.628C282.488 398.79 296.332 401.043 311.846 400.629L311.471 387.634ZM275.749 381.749C265.928 377.258 258.49 371.184 253.181 363.604L242.537 371.044C249.332 380.747 258.691 388.23 270.362 393.569L275.749 381.749ZM253.24 363.689C248.133 356.143 245.384 347.442 245.094 337.387L232.099 337.734C232.455 350.07 235.881 361.211 242.478 370.958L253.24 363.689ZM245.094 337.387C244.987 333.666 245.61 332.169 245.858 331.792L234.997 324.624C232.561 328.321 231.964 333.058 232.099 337.734L245.094 337.387ZM245.858 331.792C245.721 332.001 245.604 331.991 245.869 331.881C246.203 331.742 246.952 331.535 248.326 331.499L247.951 318.504C243.251 318.63 238.044 320 234.997 324.624L245.858 331.792ZM248.326 331.499C248.034 331.507 247.898 331.479 248.007 331.494C248.089 331.505 248.263 331.535 248.552 331.599C249.134 331.728 249.968 331.95 251.094 332.292L254.848 319.854C253.552 319.461 252.369 319.136 251.34 318.908C250.442 318.709 249.189 318.471 247.951 318.504L248.326 331.499ZM251.577 332.418C252.657 332.658 252.989 333.019 253.17 333.276L263.775 325.779C261.454 322.501 258.118 320.56 254.365 319.728L251.577 332.418ZM252.368 331.747C254.872 338.599 257.995 345.503 261.722 352.456L273.178 346.334C269.715 339.874 266.853 333.533 264.578 327.308L252.368 331.747ZM261.795 352.588C266.07 360.137 271.794 366.43 278.917 371.417L286.359 360.775C280.82 356.897 276.42 352.056 273.105 346.202L261.795 352.588ZM278.998 371.473C286.947 376.862 296.758 379.124 307.915 378.826L307.54 365.831C298.305 366.078 291.389 364.184 286.278 360.719L278.998 371.473ZM307.915 378.826C318.188 378.552 327.56 377.149 335.968 374.532L332.079 362.12C325.019 364.317 316.861 365.583 307.54 365.831L307.915 378.826ZM336.113 374.485C344.722 371.581 351.821 367.13 356.998 360.905L346.995 352.58C343.664 356.586 338.78 359.857 331.933 362.167L336.113 374.485ZM356.988 360.918C362.656 354.138 365.081 345.627 364.803 335.994L351.808 336.34C352.015 343.5 350.234 348.706 347.006 352.567L356.988 360.918ZM364.803 335.994C364.579 328.206 362.023 321.317 356.935 315.748L347.345 324.504C350.109 327.528 351.664 331.333 351.808 336.34L364.803 335.994ZM357.142 315.985C352.923 310.895 348.071 306.833 342.567 303.917L336.499 315.4C340.343 317.436 343.895 320.352 347.139 324.267L357.142 315.985ZM342.486 303.875C329.429 297.188 317.872 291.547 307.824 286.959L302.445 298.781C312.267 303.266 323.643 308.817 336.58 315.442L342.486 303.875ZM307.824 286.959C298.049 282.495 289.862 278.236 283.218 274.191L276.473 285.289C283.678 289.677 292.35 294.172 302.445 298.781L307.824 286.959ZM283.407 274.31C277.373 270.346 272.828 265.743 269.609 260.542L258.559 267.367C262.894 274.369 268.858 280.29 276.284 285.169L283.407 274.31ZM269.734 260.753C266.838 255.656 265.042 248.643 264.773 239.327L251.778 239.674C252.086 250.35 254.163 259.64 258.433 267.156L269.734 260.753ZM264.773 239.327C264.394 226.163 269.148 216.393 279.078 209.202L271.436 198.669C257.847 208.511 251.281 222.452 251.778 239.674L264.773 239.327ZM279.037 209.231C289.657 201.663 303.964 197.367 322.473 196.873L322.098 183.879C301.82 184.42 284.775 189.164 271.477 198.64L279.037 209.231ZM322.473 196.873C326.536 196.765 331.518 197.166 337.481 198.155L339.582 185.331C333.08 184.253 327.231 183.742 322.098 183.879L322.473 196.873ZM337.713 198.189C343.723 198.965 349.551 200.304 355.202 202.205L359.324 189.885C352.853 187.709 346.193 186.18 339.349 185.297L337.713 198.189ZM355.267 202.226C360.893 204.054 365.275 206.448 368.601 209.279L377.016 199.388C372.137 195.235 366.156 192.104 359.259 189.864L355.267 202.226ZM368.601 209.279C371.355 211.622 372.595 214.257 372.69 217.541L385.685 217.195C385.48 210.083 382.467 204.028 377.016 199.388L368.601 209.279ZM372.69 217.541C372.715 218.418 372.474 219.322 371.378 220.481L380.832 229.425C384.007 226.068 385.821 221.916 385.685 217.195L372.69 217.541ZM371.378 220.481C370.376 221.54 369.421 221.93 368.215 221.962L368.59 234.957C373.383 234.829 377.562 232.881 380.832 229.425L371.378 220.481ZM368.215 221.962C364.579 222.059 361.98 221.465 360.13 220.542L354.345 232.171C358.586 234.287 363.43 235.094 368.59 234.957L368.215 221.962ZM360.594 220.797C357.749 219.077 354.598 217.164 351.14 215.058L344.395 226.156C347.862 228.267 351.024 230.187 353.882 231.916L360.594 220.797ZM351.282 215.147C347.014 212.395 342.178 209.936 336.81 207.745L331.92 219.779C336.675 221.72 340.774 223.824 344.253 226.067L351.282 215.147ZM336.902 207.784C330.887 205.221 323.641 204.245 315.489 204.462L315.864 217.457C322.906 217.269 328.119 218.161 331.828 219.741L336.902 207.784ZM315.489 204.462C308.846 204.64 302.452 206.076 296.352 208.755L301.603 220.658C306.172 218.651 310.911 217.589 315.864 217.457L315.489 204.462ZM296.545 208.674C290.374 211.15 285.104 214.713 280.887 219.42L290.579 228.106C293.34 225.024 296.9 222.549 301.41 220.739L296.545 208.674ZM280.766 219.56C276.468 224.642 274.327 230.636 274.518 237.267L287.513 236.92C287.416 233.555 288.42 230.662 290.701 227.966L280.766 219.56ZM274.518 237.267C274.74 244.968 277.139 251.854 281.888 257.583L291.891 249.302C289.177 246.028 287.66 242.013 287.513 236.92L274.518 237.267ZM281.888 257.583C286.064 262.622 290.99 266.948 296.633 270.564L303.63 259.623C299.08 256.708 295.178 253.268 291.891 249.302L281.888 257.583ZM297.019 270.793C299.478 272.139 302.138 273.578 304.997 275.111L311.119 263.656C308.289 262.139 305.664 260.719 303.243 259.394L297.019 270.793ZM305.32 275.272C308.104 276.571 310.995 277.968 313.993 279.464L319.777 267.835C316.686 266.292 313.692 264.845 310.797 263.495L305.32 275.272ZM314.147 279.539C317.042 280.889 320.035 282.235 323.125 283.577L328.281 271.655C325.292 270.357 322.407 269.059 319.623 267.761L314.147 279.539ZM323.271 283.638C326.358 284.89 329.347 286.238 332.237 287.68L338.022 276.051C334.822 274.455 331.527 272.969 328.136 271.594L323.271 283.638ZM332.505 287.807C340.719 291.448 348.113 295.471 354.708 299.86L361.896 289.044C354.619 284.201 346.565 279.832 337.754 275.925L332.505 287.807ZM354.782 299.909C361.245 304.085 366.352 309.032 370.209 314.732L380.971 307.463C376.05 300.191 369.632 294.042 361.822 288.996L354.782 299.909ZM370.209 314.732C373.748 319.961 375.843 326.821 376.099 335.692L389.095 335.345C388.785 324.625 386.209 315.203 380.971 307.462L370.209 314.732ZM376.099 335.692C376.406 346.324 373.597 355.22 367.834 362.719L378.15 370.653C385.886 360.586 389.48 348.703 389.095 335.345L376.099 335.692ZM367.881 362.66C361.847 370.326 353.932 376.329 343.968 380.63L349.143 392.566C360.917 387.484 370.627 380.212 378.104 370.712L367.881 362.66ZM343.968 380.63C333.893 384.979 323.079 387.325 311.471 387.634L311.846 400.629C325.029 400.277 337.48 397.601 349.143 392.566L343.968 380.63Z" fill="white"/>
</svg>
